<svg version="1.0" xmlns="http://www.w3.org/2000/svg"
 width="981.000000pt" height="666.000000pt" viewBox="0 0 981.000000 666.000000"
 preserveAspectRatio="xMidYMid meet">
<g transform="translate(0.000000,666.000000) scale(0.100000,-0.100000)"
fill="rgb(30 64 175)" stroke="none">
<path d="M2254 6641 c-99 -12 -144 -66 -144 -173 0 -38 -1 -68 -2 -68 -26 0
-324 -43 -381 -55 -323 -67 -636 -210 -902 -414 -87 -66 -246 -222 -333 -326
-238 -283 -418 -684 -462 -1025 -22 -173 -29 -581 -29 -1575 0 -1367 12 -2110
34 -2189 20 -74 99 -239 157 -326 95 -144 264 -293 423 -372 159 -79 274 -103
505 -102 160 1 183 3 263 28 117 35 200 73 302 140 262 171 450 458 484 738 6
46 13 270 16 498 8 567 13 590 124 647 35 18 67 30 72 27 4 -2 40 -67 80 -144
44 -87 96 -169 138 -222 160 -198 389 -336 641 -388 145 -30 350 -24 490 14
245 68 483 234 618 433 44 65 113 199 131 255 7 20 20 40 29 44 9 4 187 9 394
12 l377 4 18 -43 c42 -107 117 -240 177 -316 164 -203 341 -320 587 -389 128
-35 343 -44 473 -20 310 59 567 243 753 541 41 65 93 175 93 196 0 53 130 9
182 -62 11 -14 24 -43 29 -65 6 -21 14 -244 19 -495 9 -471 17 -574 52 -687
97 -316 389 -601 728 -710 112 -36 194 -45 345 -38 256 11 384 53 590 190 78
52 206 175 261 253 96 133 171 322 196 489 18 121 18 3338 1 3514 -34 335
-157 683 -340 960 -354 536 -904 871 -1563 955 -69 9 -139 18 -156 21 l-32 5
-4 72 c-4 80 -24 119 -81 152 -28 17 -59 19 -287 23 -308 5 -400 -4 -441 -44
-28 -27 -52 -84 -65 -157 -7 -43 -27 -57 -81 -57 -66 0 -82 9 -103 58 -26 59
-80 124 -126 153 -54 33 -185 38 -1249 45 -965 7 -1843 -6 -1918 -27 -65 -18
-177 -139 -177 -191 0 -23 -37 -38 -91 -38 -62 0 -76 13 -89 77 -26 123 -60
161 -157 174 -76 9 -490 10 -569 0z m4034 -1213 l2 -868 -1390 0 -1390 0 0
863 c0 475 3 867 7 870 3 4 628 6 1387 5 l1381 -3 3 -867z m1192 602 c430 -11
529 -23 705 -81 298 -99 542 -254 767 -487 201 -209 330 -438 417 -742 58
-202 60 -230 72 -860 12 -646 5 -2632 -11 -2815 -10 -121 -39 -221 -91 -312
-179 -313 -570 -452 -897 -320 -190 77 -323 206 -425 413 l-44 89 -7 450 c-9
571 -16 666 -55 749 -37 77 -112 169 -176 219 -64 49 -178 104 -232 113 -24 3
-47 12 -53 19 -5 6 -17 51 -25 98 -93 535 -510 911 -1035 934 -514 22 -964
-301 -1099 -789 -16 -58 -51 -226 -51 -244 0 -2 -153 -4 -340 -4 l-340 0 -5
23 c-3 12 -12 58 -20 102 -54 273 -190 510 -386 668 -106 86 -286 177 -424
214 -90 24 -117 27 -270 27 -152 0 -180 -3 -268 -27 -421 -113 -728 -449 -812
-887 -9 -47 -18 -95 -21 -108 -3 -16 -12 -22 -29 -22 -106 0 -328 -141 -404
-257 -67 -101 -78 -203 -90 -829 l-8 -452 -51 -103 c-62 -125 -128 -209 -223
-284 -142 -110 -280 -159 -454 -159 -129 0 -204 17 -320 73 -181 88 -316 246
-385 451 -20 59 -23 97 -32 425 -12 452 -3 2980 11 3115 33 298 152 617 318
849 220 307 537 540 899 660 246 82 334 91 1010 98 l541 6 8 -729 c4 -401 11
-773 15 -827 10 -120 30 -155 128 -227 l67 -50 1543 0 1543 0 44 30 c74 51
131 115 144 162 10 37 26 840 30 1538 l1 105 222 -3 c123 -1 392 -7 598 -12z
m-1015 -2895 c235 -41 417 -177 529 -394 70 -136 78 -177 74 -359 l-3 -158
-59 -119 c-54 -108 -69 -129 -150 -210 -100 -99 -169 -144 -273 -180 -296
-100 -597 -17 -802 220 -71 82 -149 240 -163 330 -16 105 -5 306 21 379 48
137 183 308 303 387 97 62 272 116 384 118 28 1 91 -6 139 -14z m-2790 -22
c198 -65 356 -204 452 -400 40 -82 46 -104 55 -198 15 -159 0 -291 -46 -390
-130 -281 -380 -447 -676 -448 -131 -1 -215 19 -339 79 -164 80 -297 236 -369
436 -24 66 -27 86 -27 218 0 132 3 152 27 218 91 251 276 429 510 492 97 27
321 22 413 -7z"/>
<path d="M1703 5071 c-47 -12 -80 -36 -100 -74 -16 -28 -18 -60 -18 -239 -1
-114 -3 -209 -6 -212 -3 -3 -48 -1 -100 5 -51 6 -140 9 -195 7 -118 -5 -152
-20 -199 -87 l-30 -43 0 -181 c0 -174 1 -184 24 -220 41 -66 85 -88 193 -94
51 -3 140 -1 198 5 57 6 107 9 110 6 2 -3 5 -102 5 -219 l0 -214 30 -32 c51
-54 76 -59 272 -59 200 0 228 7 271 70 21 32 22 41 22 247 l0 213 73 -7 c91
-10 293 -10 329 0 14 4 49 25 77 47 l51 40 0 215 0 215 -51 40 c-28 22 -63 43
-77 48 -34 9 -246 9 -334 0 l-68 -7 0 213 c0 204 -1 214 -22 246 -43 63 -83
74 -263 77 -88 1 -175 -2 -192 -6z m47 -603 c65 -10 296 -5 337 7 20 7 21 3
28 -81 9 -105 1 -362 -11 -374 -5 -4 -36 -4 -69 2 -72 12 -319 5 -358 -11
l-28 -11 8 78 c10 99 10 236 0 336 -8 73 -7 78 10 71 10 -4 47 -12 83 -17z"/>
<path d="M7843 5070 c-92 -19 -169 -86 -204 -178 -28 -75 -24 -206 9 -268 46
-89 140 -145 255 -152 98 -6 147 12 212 76 127 125 135 303 19 431 -47 53 -94
77 -175 91 -35 5 -66 9 -69 9 -3 -1 -24 -5 -47 -9z"/>
<path d="M7333 4549 c-186 -36 -298 -255 -218 -427 33 -70 108 -144 164 -161
67 -20 181 -16 234 7 56 25 121 92 154 160 24 48 25 60 20 134 -8 98 -33 154
-90 204 -79 68 -178 100 -264 83z"/>
<path d="M8326 4525 c-259 -106 -251 -466 13 -566 113 -43 251 -7 326 86 54
67 68 104 73 191 5 97 -13 147 -78 218 -89 96 -210 122 -334 71z"/>
<path d="M7785 3992 c-65 -31 -112 -77 -147 -145 -34 -66 -32 -183 5 -259 76
-156 239 -214 389 -140 88 43 152 112 174 188 72 249 -186 467 -421 356z"/>
<path d="M4762 3729 c-70 -35 -104 -71 -141 -149 -36 -77 -37 -184 -1 -254 84
-164 297 -219 452 -116 84 56 130 145 129 253 0 89 -32 158 -102 221 -60 54
-121 76 -209 76 -54 0 -78 -6 -128 -31z"/>
<path d="M6192 2959 c-73 -14 -182 -79 -252 -149 -108 -109 -160 -239 -160
-400 0 -162 51 -291 160 -401 92 -94 178 -134 315 -150 112 -12 230 -5 290 19
153 59 307 226 341 370 16 67 18 227 4 303 -24 129 -133 275 -252 340 -126 68
-162 78 -288 77 -63 0 -134 -4 -158 -9z m226 -355 c20 -8 50 -27 66 -42 33
-32 76 -116 76 -152 0 -36 -43 -120 -76 -152 -104 -97 -270 -65 -333 65 -50
104 -6 222 104 280 39 21 115 21 163 1z"/>
<path d="M3267 2946 c-138 -58 -231 -135 -300 -248 -56 -93 -67 -142 -67 -292
1 -147 12 -194 71 -291 97 -161 244 -248 443 -264 119 -9 180 0 268 41 124 56
214 140 273 250 134 253 50 599 -179 737 -107 64 -177 83 -321 88 -121 4 -134
2 -188 -21z m299 -361 c143 -84 132 -291 -19 -364 -84 -41 -182 -19 -246 54
-48 55 -64 100 -58 158 18 151 188 231 323 152z"/>
</g>
</svg>
