<?xml version="1.0" standalone="no"?>
<!DOCTYPE svg PUBLIC "-//W3C//DTD SVG 20010904//EN"
 "http://www.w3.org/TR/2001/REC-SVG-20010904/DTD/svg10.dtd">
<svg version="1.0" xmlns="http://www.w3.org/2000/svg"
 width="907.000000pt" height="284.000000pt" viewBox="0 0 907.000000 284.000000"
 preserveAspectRatio="xMidYMid meet">

<g transform="translate(0.000000,284.000000) scale(0.100000,-0.100000)"
fill="#000000" stroke="none">
<path d="M6520 2554 c-143 -38 -247 -144 -284 -289 -24 -89 -24 -1631 -1
-1720 33 -125 124 -228 245 -278 l55 -22 970 0 c1073 0 1018 -3 1125 66 67 43
119 108 152 189 l23 55 0 850 0 850 -22 55 c-50 121 -153 212 -278 245 -87 22
-1900 22 -1985 -1z m819 -608 c41 -22 89 -81 96 -118 3 -18 5 -240 3 -494 l-3
-461 -28 -36 c-55 -73 -50 -72 -454 -75 -386 -3 -420 0 -472 44 -61 51 -62 60
-59 575 l3 465 25 37 c13 19 40 45 60 56 34 20 50 21 418 21 315 0 388 -3 411
-14z m641 -376 c0 -27 4 -50 8 -50 4 0 30 23 57 50 l49 50 214 0 c238 0 267
-7 314 -72 23 -33 23 -34 26 -402 2 -293 0 -371 -10 -378 -15 -9 -129 -11
-152 -2 -14 5 -16 46 -16 350 l0 344 -245 0 -245 0 0 -344 c0 -390 8 -356 -90
-356 -99 0 -90 -44 -90 436 l0 424 90 0 90 0 0 -50z"/>
<path d="M6630 1365 l0 -425 303 2 302 3 3 400 c1 220 0 410 -3 423 l-5 22
-300 0 -300 0 0 -425z"/>
<path d="M4357 2263 c-28 -3 -41 -10 -49 -29 -14 -31 -41 -31 -62 1 l-16 25
-360 0 -359 0 -19 -25 c-11 -14 -26 -25 -34 -25 -8 0 -20 11 -26 25 -11 24
-16 25 -96 25 -81 0 -84 -1 -90 -25 -5 -18 -15 -26 -44 -30 -167 -28 -311
-125 -376 -254 -53 -104 -56 -131 -56 -581 l0 -416 33 -53 c17 -30 52 -68 75
-85 38 -27 54 -31 121 -34 89 -4 133 12 188 70 49 50 60 90 68 233 4 72 12
136 17 143 16 19 34 14 46 -12 21 -46 82 -104 134 -126 41 -18 64 -21 108 -17
93 8 155 50 202 136 17 30 19 31 87 31 38 0 76 3 84 6 10 3 23 -10 41 -40 108
-184 337 -180 442 8 14 27 29 30 48 11 13 -13 16 -38 16 -124 0 -139 16 -193
72 -248 66 -63 98 -76 187 -71 67 3 82 7 125 37 36 25 55 48 75 90 l26 56 3
395 c2 267 -1 414 -8 455 -17 90 -61 173 -127 240 -71 73 -152 117 -254 140
-63 13 -78 21 -88 41 -6 15 -19 24 -33 24 -13 0 -32 2 -43 4 -11 2 -37 1 -58
-1z m-177 -268 l0 -195 -315 0 -315 0 0 149 c0 81 3 169 6 195 l7 46 308 0
309 0 0 -195z m-706 43 c3 -50 6 -135 6 -189 0 -90 2 -99 22 -113 19 -14 72
-16 370 -16 335 0 349 1 368 20 19 19 20 33 20 206 l0 186 163 -4 c157 -3 164
-4 227 -34 95 -46 153 -101 197 -192 l38 -76 3 -426 3 -425 -31 -46 c-35 -54
-75 -74 -140 -73 -56 1 -102 26 -134 74 -20 31 -24 51 -29 172 -6 154 -14 176
-77 205 -31 15 -40 26 -49 58 -29 112 -126 189 -239 187 -123 -2 -215 -77
-237 -195 l-7 -37 -78 0 -78 0 -10 43 c-19 74 -64 131 -125 161 -138 68 -299
3 -344 -140 -14 -47 -23 -59 -55 -75 -64 -32 -72 -55 -78 -208 -6 -150 -15
-174 -83 -223 -48 -34 -132 -32 -180 5 -20 15 -44 41 -52 57 -22 43 -27 191
-18 565 8 329 8 330 35 387 49 106 165 201 274 227 22 5 100 9 175 10 l136 1
7 -92z m146 -580 c90 -46 117 -162 56 -242 -36 -47 -74 -66 -134 -66 -173 0
-225 240 -69 311 55 25 93 24 147 -3z m650 0 c88 -45 116 -158 60 -236 -37
-52 -76 -72 -138 -72 -173 0 -225 240 -69 311 55 25 93 24 147 -3z"/>
<path d="M3131 1891 c-6 -11 -11 -38 -11 -60 l0 -41 -50 0 c-44 0 -52 -3 -62
-25 -8 -17 -8 -37 -2 -63 9 -36 10 -37 62 -40 l52 -3 0 -49 c0 -56 15 -70 72
-70 48 0 56 10 60 65 l3 50 55 5 55 5 0 60 0 60 -55 5 -55 5 -5 55 -5 55 -52
3 c-43 3 -54 0 -62 -17z m109 -164 l0 -53 -50 -1 -50 -1 0 54 0 54 50 0 50 0
0 -53z"/>
<path d="M4506 1895 c-26 -27 -29 -56 -9 -84 40 -53 113 -31 113 34 0 55 -66
87 -104 50z"/>
<path d="M4385 1770 c-36 -40 -9 -110 42 -110 35 0 73 42 66 71 -14 57 -72 78
-108 39z"/>
<path d="M4620 1770 c-26 -26 -25 -64 2 -90 43 -40 108 -11 108 48 0 57 -69
83 -110 42z"/>
<path d="M4496 1648 c-22 -31 -20 -52 7 -84 19 -21 29 -26 50 -20 36 9 57 33
57 65 0 57 -82 85 -114 39z"/>
<path d="M3822 1597 c-38 -45 -11 -110 46 -110 17 0 38 5 46 13 21 16 20 74 0
94 -19 19 -77 21 -92 3z"/>
<path d="M3480 1418 c-41 -28 -60 -61 -60 -106 0 -73 52 -122 130 -122 52 0
108 48 116 100 17 107 -99 187 -186 128z m91 -68 c25 -14 24 -55 -2 -74 -43
-30 -93 20 -63 63 17 23 35 26 65 11z"/>
<path d="M4145 1426 c-44 -20 -66 -49 -72 -95 -11 -81 43 -141 126 -141 53 0
109 47 117 100 16 98 -83 177 -171 136z m83 -78 c16 -16 15 -53 -2 -67 -22
-19 -68 -9 -77 15 -16 45 46 85 79 52z"/>
<path d="M411 1933 c-18 -9 -47 -35 -63 -57 l-29 -40 3 -482 3 -483 38 -39
c21 -22 55 -44 76 -51 24 -7 131 -11 291 -11 l252 0 67 65 c37 36 70 65 74 65
3 0 7 -28 9 -62 l3 -63 90 0 90 0 3 328 2 327 -168 0 -168 0 -74 -75 -74 -74
145 -3 144 -3 3 -173 2 -172 -312 2 -313 3 -3 426 -2 427 25 6 c15 4 198 6
408 6 l382 -1 3 75 3 76 -438 0 c-388 0 -442 -2 -472 -17z"/>
<path d="M1692 1547 c-34 -34 -62 -66 -62 -70 0 -4 147 -8 328 -9 l327 -3 0
-275 0 -275 -249 -3 c-193 -2 -251 1 -258 10 -9 15 -11 169 -2 192 5 14 30 16
172 16 l165 0 70 70 71 70 -251 0 c-154 0 -263 -4 -280 -11 -36 -13 -82 -57
-95 -89 -16 -40 -12 -274 6 -307 41 -80 85 -93 313 -93 l188 0 70 59 c38 33
73 57 77 55 4 -3 8 -30 8 -60 l0 -55 78 3 77 3 0 361 0 360 -27 41 c-47 71
-59 73 -380 73 l-284 0 -62 -63z"/>
<path d="M5384 1596 c-17 -8 -44 -31 -60 -52 l-29 -37 -3 -276 c-2 -152 0
-295 3 -319 8 -55 62 -117 113 -132 22 -6 177 -10 375 -10 l337 0 0 70 0 70
-332 2 -333 3 0 275 0 275 253 3 252 2 0 -110 0 -110 -168 0 -168 0 -62 -63
c-34 -34 -62 -66 -62 -70 0 -4 102 -7 228 -7 l227 0 83 83 82 82 0 111 c0 122
-11 152 -73 198 -27 20 -42 21 -330 23 -239 2 -309 0 -333 -11z"/>
</g>
</svg>
